name symmetric_stride_kinematics_HTD_Minus_4.mot
datacolumns 38
datarows 5
range 0.48552000 0.48940416
endheader
                time	/jointset/ground_pelvis/pelvis_tilt/value	/jointset/ground_pelvis/pelvis_list/value	/jointset/ground_pelvis/pelvis_rotation/value	/jointset/ground_pelvis/pelvis_tx/value	/jointset/ground_pelvis/pelvis_ty/value	/jointset/ground_pelvis/pelvis_tz/value	/jointset/hip_r/hip_flexion_r/value	/jointset/hip_r/hip_adduction_r/value	/jointset/hip_r/hip_rotation_r/value	/jointset/knee_r/knee_angle_r/value	/jointset/ankle_r/ankle_angle_r/value	/jointset/subtalar_r/subtalar_angle_r/value	/jointset/mtp_r/mtp_angle_r/value	/jointset/hip_l/hip_flexion_l/value	/jointset/hip_l/hip_adduction_l/value	/jointset/hip_l/hip_rotation_l/value	/jointset/knee_l/knee_angle_l/value	/jointset/ankle_l/ankle_angle_l/value	/jointset/subtalar_l/subtalar_angle_l/value	/jointset/mtp_l/mtp_angle_l/value	/jointset/back/lumbar_extension/value	/jointset/back/lumbar_bending/value	/jointset/back/lumbar_rotation/value	/jointset/acromial_r/arm_flex_r/value	/jointset/acromial_r/arm_add_r/value	/jointset/acromial_r/arm_rot_r/value	/jointset/elbow_r/elbow_flex_r/value	/jointset/radioulnar_r/pro_sup_r/value	/jointset/radius_hand_r/wrist_flex_r/value	/jointset/radius_hand_r/wrist_dev_r/value	/jointset/acromial_l/arm_flex_l/value	/jointset/acromial_l/arm_add_l/value	/jointset/acromial_l/arm_rot_l/value	/jointset/elbow_l/elbow_flex_l/value	/jointset/radioulnar_l/pro_sup_l/value	/jointset/radius_hand_l/wrist_flex_l/value	/jointset/radius_hand_l/wrist_dev_l/value	
          0.48552000	         -9.77342760	          5.56660897	         -9.54129745	          5.49910516	          0.96863553	          0.30825276	          6.05105834	        -10.98513243	          7.51732143	        -62.92623424	        -28.72215722	        -15.57510556	         -9.81365747	         79.44932302	         -9.89018012	          4.27117640	        -95.51605133	         13.40166404	        -25.78882465	         -1.02716713	        -14.01157692	         -6.94730108	          6.89561040	         79.89854853	        -17.83206329	         -0.00177088	        156.37565945	         57.50975039	         -8.30989398	          7.84287916	        -74.88721542	          0.04336073	         -0.00301595	         93.92308883	         66.90327280	        -14.18424020	          6.66965832	
          0.48612224	         -9.79764348	          5.54528934	         -9.45128452	          5.50572925	          0.96891167	          0.30836360	          6.06434426	        -10.97594209	          7.47802376	        -63.28073538	        -28.81134220	        -15.43412435	         -9.74489635	         79.41491829	         -9.89144248	          4.21528870	        -94.81210978	         13.32900592	        -25.70133582	         -0.79110807	        -14.04477778	         -6.97257376	          6.85301056	         79.58472090	        -17.83500275	         -0.00302761	        156.24450695	         57.44542288	         -8.21598718	          7.82433504	        -74.83974804	         -0.03967348	         -0.00207034	         93.49519746	         66.96332131	        -14.28999836	          6.67968763	
          0.48802509	         -9.86176202	          5.47706598	         -9.16764627	          5.52663415	          0.96983008	          0.30872170	          6.10743615	        -10.94284022	          7.35735760	        -64.39449575	        -29.06234930	        -14.96748860	         -9.53343039	         79.24824308	         -9.89394712	          4.02304349	        -92.55172478	         13.07779210	        -25.41994271	         -0.04199314	        -14.17043386	         -7.05478790	          6.71867066	         78.51141228	        -17.88174856	         -0.00440288	        155.73403292	         57.23552749	         -7.91926267	          7.76568239	        -74.63944504	         -0.32988762	         -0.00001012	         92.14811738	         67.16359317	        -14.62416552	          6.70576361	
          0.48940416	         -9.89443834	          5.42695294	         -8.96429077	          5.54176367	          0.97054022	          0.30898968	          6.13783427	        -10.91561032	          7.27264178	        -65.19668257	        -29.19995836	        -14.63623389	         -9.38914129	         79.07077880	         -9.89483818	          3.86860320	        -90.88166866	         12.87044570	        -25.22527702	          0.49433411	        -14.28280926	         -7.11707393	          6.62329865	         77.65750057	        -17.95119257	         -0.00234597	        155.26780526	         57.07556929	         -7.70423032	          7.72322844	        -74.44952702	         -0.56581177	         -0.00381312	         91.18371001	         67.31871265	        -14.86633603	          6.71948665	
          0.48940416	         -9.89443834	          5.42695294	         -8.96429077	          5.54176367	          0.97054022	          0.30898968	          6.13783427	        -10.91561032	          7.27264178	        -65.19668257	        -29.19995836	        -14.63623389	         -9.38914129	         79.07077880	         -9.89483818	          3.86860320	        -90.88166866	         12.87044570	        -25.22527702	          0.49433411	        -14.28280926	         -7.11707393	          6.62329865	         77.65750057	        -17.95119257	         -0.00234597	        155.26780526	         57.07556929	         -7.70423032	          7.72322844	        -74.44952702	         -0.56581177	         -0.00381312	         91.18371001	         67.31871265	        -14.86633603	          6.71948665	
